<?xml version="1.0" encoding="UTF-8"?>
<svg id="Layer_1" data-name="Layer 1" xmlns="http://www.w3.org/2000/svg" viewBox="0 0 278 265">
  <defs>
    <style>
      .cls-1 {
        fill: #caa5a8;
      }
    </style>
  </defs>
  <g id="Layer_2" data-name="Layer 2">
    <g id="layer_1-2" data-name="layer 1-2">
      <path class="cls-1" d="M176.35,172.5H105.1c-1.04,0-1.88-.84-1.88-1.88V84.38c0-1.04,.84-1.88,1.88-1.88h71.25c1.04,0,1.88,.84,1.88,1.88v9.38h-3.75v-7.5H106.97v82.5h67.5v-41.25h3.75v43.12c0,1.04-.84,1.88-1.88,1.88Z"/>
      <rect class="cls-1" x="110.72" y="90" width="3.75" height="3.75"/>
      <rect class="cls-1" x="118.22" y="90" width="3.75" height="3.75"/>
      <rect class="cls-1" x="125.72" y="90" width="3.75" height="3.75"/>
      <rect class="cls-1" x="105.1" y="97.5" width="65.62" height="3.75"/>
      <path class="cls-1" d="M185.07,114.23c-.5,0-.98-.19-1.33-.54l-10.44-10.44c-.74-.73-.74-1.92-.01-2.65,0,0,0,0,.01-.01l5.17-5.18c2.19-2.2,5.75-2.21,7.95-.01,0,0,0,0,.01,.01l5.14,5.14c2.2,2.19,2.21,5.75,.01,7.95,0,0,0,0-.01,.01l-5.17,5.18c-.35,.35-.83,.55-1.33,.54Zm-7.8-12.32l7.8,7.8,3.86-3.86c.73-.73,.73-1.91,0-2.64l-5.08-5.16c-.73-.73-1.91-.73-2.64,0l-3.94,3.86Z"/>
      <path class="cls-1" d="M127.6,161.25c-.5,0-.98-.19-1.33-.54-.52-.53-.68-1.31-.41-2.01l6.52-16.99c.23-.58,.74-1.01,1.35-1.14,.62-.14,1.27,.05,1.73,.51l10.44,10.44c.45,.45,.64,1.1,.51,1.72-.13,.61-.56,1.12-1.14,1.35l-16.99,6.52c-.21,.09-.44,.13-.67,.13Zm7.24-15.49l-3.97,10.35,10.35-3.97-6.37-6.38Z"/>
      <path class="cls-1" d="M144.58,154.73c-.5,0-.98-.2-1.33-.56l-10.44-10.44c-.73-.73-.73-1.91,0-2.64l40.48-40.5c.73-.73,1.91-.73,2.64,0l10.46,10.46c.35,.35,.54,.82,.54,1.31,0,.5-.19,.98-.54,1.33l-40.5,40.48c-.35,.35-.82,.56-1.31,.56Zm-7.8-12.34l7.8,7.8,37.84-37.84-7.8-7.8-37.84,37.84Z"/>
      <rect class="cls-1" x="150.53" y="127.17" width="3.75" height="14.78" transform="translate(-50.51 147.14) rotate(-44.99)"/>
      <rect class="cls-1" x="114.47" y="157.5" width="13.12" height="3.75"/>
      <rect class="cls-1" x="114.47" y="146.25" width="11.25" height="3.75"/>
      <rect class="cls-1" x="114.47" y="135" width="16.88" height="3.75"/>
      <rect class="cls-1" x="129.47" y="123.75" width="13.12" height="3.75"/>
      <rect class="cls-1" x="114.47" y="123.75" width="11.25" height="3.75"/>
      <rect class="cls-1" x="138.85" y="112.5" width="15" height="3.75"/>
      <rect class="cls-1" x="114.47" y="112.5" width="20.62" height="3.75"/>
    </g>
  </g>
</svg>