<?xml version="1.0" encoding="UTF-8"?>
<svg id="Layer_1" data-name="Layer 1" xmlns="http://www.w3.org/2000/svg" viewBox="0 0 266 265">
  <defs>
    <style>
      .cls-1 {
        fill: #caa5a8;
      }
    </style>
  </defs>
  <path class="cls-1" d="M183.77,169.9h-5.01v-49.64h5.01c.97,0,1.75-.79,1.75-1.75,0-.27-.06-.54-.18-.78l-12.03-24.2c-.3-.6-.91-.97-1.57-.97h-32.58l-2.81-2.81c-.56-.55-1.23-.97-1.97-1.22v-3.19l10.82-3.08c.93-.26,1.47-1.23,1.21-2.17-.17-.58-.62-1.04-1.21-1.21l-10.82-3.09v-.45c0-.97-.79-1.75-1.75-1.75s-1.75,.79-1.75,1.75v13.19c-.74,.25-1.41,.67-1.97,1.22l-2.81,2.81h-32.58c-.67,0-1.27,.38-1.57,.97l-12.03,24.2c-.43,.87-.07,1.92,.79,2.35,.24,.12,.51,.18,.78,.18h5.01v49.64h-5.01c-.97,0-1.75,.79-1.75,1.75s.79,1.75,1.75,1.75h102.29c.97,0,1.75-.79,1.75-1.75s-.79-1.75-1.75-1.75Zm-8.52,0h-17.93v-44.29l.92,.92c2.03,2.07,5.35,2.09,7.42,.06,1.69-1.67,2.06-4.26,.89-6.33h8.7v49.64Zm-34.26,0h-16.71v-22.27h16.71v22.27Zm1.75-25.78h-20.22c-.97,0-1.75,.79-1.75,1.75v24.03h-9.32v-47.8l21.18-21.18,21.18,21.18v47.8h-9.32v-24.03c0-.97-.79-1.75-1.75-1.75h0Zm27.91-48.05l10.29,20.69h-17.59l-20.69-20.69h27.99Zm-32.33-15.5l-3.94,1.12v-2.25l3.94,1.12Zm-6.93,11.66c.69-.68,1.8-.68,2.48,0l29.33,29.33c.68,.69,.68,1.8,0,2.48-.69,.66-1.79,.66-2.48,0l-26.85-26.85c-.68-.69-1.8-.69-2.48,0,0,0,0,0,0,0l-26.85,26.85c-.69,.68-1.8,.68-2.48,0-.68-.69-.68-1.8,0-2.48l29.33-29.33Zm-36.78,3.83h27.99l-20.69,20.69h-17.59l10.29-20.69Zm-4.6,24.2h8.7c-1.16,2.04-.81,4.61,.86,6.26,2.06,2.05,5.39,2.05,7.45,0l.92-.92v44.29h-17.93v-49.64Z"/>
  <path class="cls-1" d="M132.62,127.36c3.88,0,7.02-3.14,7.02-7.02s-3.14-7.02-7.02-7.02-7.02,3.14-7.02,7.02h0c0,3.88,3.14,7.02,7.02,7.02Zm0-10.53c1.94,0,3.51,1.57,3.51,3.51s-1.57,3.51-3.51,3.51-3.51-1.57-3.51-3.51c0-1.94,1.57-3.51,3.51-3.51Z"/>
  <path class="cls-1" d="M149.42,139.52v-6.91c0-.97-.79-1.75-1.75-1.75h-30.08c-.97,0-1.75,.79-1.75,1.75v6.91c0,.97,.79,1.75,1.75,1.75h30.08c.97,0,1.75-.79,1.75-1.75Zm-3.51-1.75h-26.57v-3.4h26.57v3.4Z"/>
  <path class="cls-1" d="M102.42,130.86h-6.91c-.97,0-1.75,.79-1.75,1.75v6.91c0,.97,.79,1.75,1.75,1.75h6.91c.97,0,1.75-.79,1.75-1.75v-6.91c0-.97-.79-1.75-1.75-1.75Zm-1.75,6.91h-3.4v-3.4h3.4v3.4Z"/>
  <path class="cls-1" d="M102.42,144.12h-6.91c-.97,0-1.75,.79-1.75,1.75v6.91c0,.97,.79,1.75,1.75,1.75h6.91c.97,0,1.75-.79,1.75-1.75v-6.91c0-.97-.79-1.75-1.75-1.75Zm-1.75,6.91h-3.4v-3.4h3.4v3.4Z"/>
  <path class="cls-1" d="M161.07,132.61v6.91c0,.97,.79,1.75,1.75,1.75h6.91c.97,0,1.75-.79,1.75-1.75v-6.91c0-.97-.79-1.75-1.75-1.75h-6.91c-.97,0-1.75,.79-1.75,1.75Zm3.51,1.75h3.4v3.4h-3.4v-3.4Z"/>
  <path class="cls-1" d="M169.74,144.12h-6.91c-.97,0-1.75,.79-1.75,1.75v6.91c0,.97,.79,1.75,1.75,1.75h6.91c.97,0,1.75-.79,1.75-1.75v-6.91c0-.97-.79-1.75-1.75-1.75Zm-1.75,6.91h-3.4v-3.4h3.4v3.4Z"/>
</svg>