<?xml version="1.0" encoding="UTF-8"?>
<svg id="Layer_1" data-name="Layer 1" xmlns="http://www.w3.org/2000/svg" viewBox="0 0 278 225">
  <defs>
    <style>
      .cls-1 {
        stroke-width: 5px;
      }

      .cls-1, .cls-2 {
        fill: none;
        stroke: #caa5a8;
        stroke-miterlimit: 10;
      }

      .cls-2 {
        stroke-width: 3px;
      }
    </style>
  </defs>
  <path class="cls-1" d="M169,97.63c.88,1.79,1.35,3.75,1.36,5.74,.19,3.6-1.78,6.97-5.01,8.58l-10.18-20.88c4.81-2.15,11.01,.79,13.83,6.55Z"/>
  <path class="cls-1" d="M114.01,137.39l4.36-1.95,10.18,20.88c.3,.6,.45,1.26,.45,1.93-.02,1.83-1.11,3.47-2.79,4.2-2.39,1.08-5.2,.09-6.39-2.24l-10.18-20.86-.12-.74c1.55-.17,3.06-.58,4.48-1.22Z"/>
  <path class="cls-1" d="M106.17,110.4l12.2,25.03-4.36,1.95c-1.42,.63-2.93,1.04-4.48,1.22-6.07,.71-11.94-2.44-14.71-7.89-.9-1.82-1.36-3.81-1.36-5.84,.06-5.46,3.33-10.37,8.34-12.54l4.36-1.93Z"/>
  <path class="cls-1" d="M165.35,111.95l9.15,18.78s-14.97-3.48-56.13,4.7l-12.2-25.03c35.21-25.86,39.85-38.11,39.85-38.11l9.15,18.78,10.18,20.88Z"/>
  <path class="cls-1" d="M165.35,111.95l2.1,4.29c.35-1.08,.52-2.2,.53-3.34,0-.87-.1-1.74-.28-2.59-.67,.68-1.47,1.24-2.34,1.64Z"/>
  <rect class="cls-2" x="178.86" y="84.59" width="19.22" height="4.77" transform="translate(-18.32 104.97) rotate(-29.75)"/>
  <rect class="cls-2" x="169.07" y="74.06" width="18.84" height="4.77" transform="translate(4.29 162.2) rotate(-49.4)"/>
  <rect class="cls-2" x="182.51" y="100.51" width="14.3" height="4.77"/>
</svg>